<mxfile host="app.diagrams.net" agent="Mozilla/5.0 (Windows NT 10.0; Win64; x64) AppleWebKit/537.36 (KHTML, like Gecko) Chrome/130.0.0.0 Safari/537.36" version="27.1.1">
  <diagram name="Página-1" id="V5g8u9qtXLVXEl-YoABd">
    <mxGraphModel dx="1426" dy="733" grid="1" gridSize="10" guides="1" tooltips="1" connect="1" arrows="1" fold="1" page="1" pageScale="1" pageWidth="827" pageHeight="1169" math="0" shadow="0">
      <root>
        <mxCell id="0" />
        <mxCell id="1" parent="0" />
        <mxCell id="dAilp7z7lTu_r-aGpdKD-1" value="Usuário" style="swimlane;fontStyle=0;childLayout=stackLayout;horizontal=1;startSize=30;horizontalStack=0;resizeParent=1;resizeParentMax=0;resizeLast=0;collapsible=1;marginBottom=0;whiteSpace=wrap;html=1;" vertex="1" parent="1">
          <mxGeometry x="80" y="90" width="140" height="240" as="geometry" />
        </mxCell>
        <mxCell id="dAilp7z7lTu_r-aGpdKD-2" value="- Nome" style="text;strokeColor=none;fillColor=none;align=left;verticalAlign=middle;spacingLeft=4;spacingRight=4;overflow=hidden;points=[[0,0.5],[1,0.5]];portConstraint=eastwest;rotatable=0;whiteSpace=wrap;html=1;" vertex="1" parent="dAilp7z7lTu_r-aGpdKD-1">
          <mxGeometry y="30" width="140" height="30" as="geometry" />
        </mxCell>
        <mxCell id="dAilp7z7lTu_r-aGpdKD-3" value="-Número" style="text;strokeColor=none;fillColor=none;align=left;verticalAlign=middle;spacingLeft=4;spacingRight=4;overflow=hidden;points=[[0,0.5],[1,0.5]];portConstraint=eastwest;rotatable=0;whiteSpace=wrap;html=1;" vertex="1" parent="dAilp7z7lTu_r-aGpdKD-1">
          <mxGeometry y="60" width="140" height="30" as="geometry" />
        </mxCell>
        <mxCell id="dAilp7z7lTu_r-aGpdKD-4" value="-Endereço" style="text;strokeColor=none;fillColor=none;align=left;verticalAlign=middle;spacingLeft=4;spacingRight=4;overflow=hidden;points=[[0,0.5],[1,0.5]];portConstraint=eastwest;rotatable=0;whiteSpace=wrap;html=1;" vertex="1" parent="dAilp7z7lTu_r-aGpdKD-1">
          <mxGeometry y="90" width="140" height="30" as="geometry" />
        </mxCell>
        <mxCell id="dAilp7z7lTu_r-aGpdKD-34" value="-CPF" style="text;strokeColor=none;fillColor=none;align=left;verticalAlign=middle;spacingLeft=4;spacingRight=4;overflow=hidden;points=[[0,0.5],[1,0.5]];portConstraint=eastwest;rotatable=0;whiteSpace=wrap;html=1;" vertex="1" parent="dAilp7z7lTu_r-aGpdKD-1">
          <mxGeometry y="120" width="140" height="30" as="geometry" />
        </mxCell>
        <mxCell id="dAilp7z7lTu_r-aGpdKD-32" value="&lt;div&gt;&lt;br&gt;&lt;/div&gt;&lt;div&gt;+ Listar&lt;/div&gt;&lt;div&gt;&lt;br&gt;&lt;/div&gt;&lt;div&gt;+ Registrar&lt;/div&gt;" style="verticalAlign=top;align=left;overflow=fill;html=1;whiteSpace=wrap;" vertex="1" parent="dAilp7z7lTu_r-aGpdKD-1">
          <mxGeometry y="150" width="140" height="90" as="geometry" />
        </mxCell>
        <mxCell id="dAilp7z7lTu_r-aGpdKD-39" style="edgeStyle=orthogonalEdgeStyle;rounded=0;orthogonalLoop=1;jettySize=auto;html=1;exitX=0.5;exitY=1;exitDx=0;exitDy=0;entryX=1;entryY=0.5;entryDx=0;entryDy=0;" edge="1" parent="1" source="dAilp7z7lTu_r-aGpdKD-5" target="dAilp7z7lTu_r-aGpdKD-33">
          <mxGeometry relative="1" as="geometry" />
        </mxCell>
        <mxCell id="dAilp7z7lTu_r-aGpdKD-5" value="Conta bancária" style="swimlane;fontStyle=0;childLayout=stackLayout;horizontal=1;startSize=30;horizontalStack=0;resizeParent=1;resizeParentMax=0;resizeLast=0;collapsible=1;marginBottom=0;whiteSpace=wrap;html=1;" vertex="1" parent="1">
          <mxGeometry x="540" y="300" width="140" height="210" as="geometry" />
        </mxCell>
        <mxCell id="dAilp7z7lTu_r-aGpdKD-6" value="-Dados pessoais" style="text;strokeColor=none;fillColor=none;align=left;verticalAlign=middle;spacingLeft=4;spacingRight=4;overflow=hidden;points=[[0,0.5],[1,0.5]];portConstraint=eastwest;rotatable=0;whiteSpace=wrap;html=1;" vertex="1" parent="dAilp7z7lTu_r-aGpdKD-5">
          <mxGeometry y="30" width="140" height="30" as="geometry" />
        </mxCell>
        <mxCell id="dAilp7z7lTu_r-aGpdKD-7" value="-Agência" style="text;strokeColor=none;fillColor=none;align=left;verticalAlign=middle;spacingLeft=4;spacingRight=4;overflow=hidden;points=[[0,0.5],[1,0.5]];portConstraint=eastwest;rotatable=0;whiteSpace=wrap;html=1;" vertex="1" parent="dAilp7z7lTu_r-aGpdKD-5">
          <mxGeometry y="60" width="140" height="30" as="geometry" />
        </mxCell>
        <mxCell id="dAilp7z7lTu_r-aGpdKD-8" value="-Saldo" style="text;strokeColor=none;fillColor=none;align=left;verticalAlign=middle;spacingLeft=4;spacingRight=4;overflow=hidden;points=[[0,0.5],[1,0.5]];portConstraint=eastwest;rotatable=0;whiteSpace=wrap;html=1;" vertex="1" parent="dAilp7z7lTu_r-aGpdKD-5">
          <mxGeometry y="90" width="140" height="30" as="geometry" />
        </mxCell>
        <mxCell id="dAilp7z7lTu_r-aGpdKD-31" value="&lt;div&gt;&lt;br&gt;&lt;/div&gt;&lt;div&gt;+Transferência&lt;/div&gt;&lt;div&gt;&lt;br&gt;&lt;/div&gt;&lt;div&gt;+SairConta():&lt;/div&gt;" style="verticalAlign=top;align=left;overflow=fill;html=1;whiteSpace=wrap;" vertex="1" parent="dAilp7z7lTu_r-aGpdKD-5">
          <mxGeometry y="120" width="140" height="90" as="geometry" />
        </mxCell>
        <mxCell id="dAilp7z7lTu_r-aGpdKD-9" value="Transferência" style="swimlane;fontStyle=0;childLayout=stackLayout;horizontal=1;startSize=30;horizontalStack=0;resizeParent=1;resizeParentMax=0;resizeLast=0;collapsible=1;marginBottom=0;whiteSpace=wrap;html=1;" vertex="1" parent="1">
          <mxGeometry x="360" y="490" width="140" height="210" as="geometry" />
        </mxCell>
        <mxCell id="dAilp7z7lTu_r-aGpdKD-10" value="Pix" style="text;strokeColor=none;fillColor=none;align=left;verticalAlign=middle;spacingLeft=4;spacingRight=4;overflow=hidden;points=[[0,0.5],[1,0.5]];portConstraint=eastwest;rotatable=0;whiteSpace=wrap;html=1;" vertex="1" parent="dAilp7z7lTu_r-aGpdKD-9">
          <mxGeometry y="30" width="140" height="30" as="geometry" />
        </mxCell>
        <mxCell id="dAilp7z7lTu_r-aGpdKD-11" value="Boleto" style="text;strokeColor=none;fillColor=none;align=left;verticalAlign=middle;spacingLeft=4;spacingRight=4;overflow=hidden;points=[[0,0.5],[1,0.5]];portConstraint=eastwest;rotatable=0;whiteSpace=wrap;html=1;" vertex="1" parent="dAilp7z7lTu_r-aGpdKD-9">
          <mxGeometry y="60" width="140" height="30" as="geometry" />
        </mxCell>
        <mxCell id="dAilp7z7lTu_r-aGpdKD-12" value="Cartão D/C" style="text;strokeColor=none;fillColor=none;align=left;verticalAlign=middle;spacingLeft=4;spacingRight=4;overflow=hidden;points=[[0,0.5],[1,0.5]];portConstraint=eastwest;rotatable=0;whiteSpace=wrap;html=1;" vertex="1" parent="dAilp7z7lTu_r-aGpdKD-9">
          <mxGeometry y="90" width="140" height="30" as="geometry" />
        </mxCell>
        <mxCell id="dAilp7z7lTu_r-aGpdKD-33" value="&lt;div&gt;&lt;br&gt;&lt;/div&gt;&lt;div&gt;+Envio&lt;/div&gt;&lt;div&gt;&lt;br&gt;&lt;/div&gt;&lt;div&gt;+ Concluir():&lt;/div&gt;" style="verticalAlign=top;align=left;overflow=fill;html=1;whiteSpace=wrap;" vertex="1" parent="dAilp7z7lTu_r-aGpdKD-9">
          <mxGeometry y="120" width="140" height="90" as="geometry" />
        </mxCell>
        <mxCell id="dAilp7z7lTu_r-aGpdKD-13" value="Conclusão" style="swimlane;fontStyle=0;childLayout=stackLayout;horizontal=1;startSize=30;horizontalStack=0;resizeParent=1;resizeParentMax=0;resizeLast=0;collapsible=1;marginBottom=0;whiteSpace=wrap;html=1;" vertex="1" parent="1">
          <mxGeometry x="130" y="400" width="140" height="210" as="geometry" />
        </mxCell>
        <mxCell id="dAilp7z7lTu_r-aGpdKD-14" value="-Transferência" style="text;strokeColor=none;fillColor=none;align=left;verticalAlign=middle;spacingLeft=4;spacingRight=4;overflow=hidden;points=[[0,0.5],[1,0.5]];portConstraint=eastwest;rotatable=0;whiteSpace=wrap;html=1;" vertex="1" parent="dAilp7z7lTu_r-aGpdKD-13">
          <mxGeometry y="30" width="140" height="30" as="geometry" />
        </mxCell>
        <mxCell id="dAilp7z7lTu_r-aGpdKD-15" value="-Saldo" style="text;strokeColor=none;fillColor=none;align=left;verticalAlign=middle;spacingLeft=4;spacingRight=4;overflow=hidden;points=[[0,0.5],[1,0.5]];portConstraint=eastwest;rotatable=0;whiteSpace=wrap;html=1;" vertex="1" parent="dAilp7z7lTu_r-aGpdKD-13">
          <mxGeometry y="60" width="140" height="30" as="geometry" />
        </mxCell>
        <mxCell id="dAilp7z7lTu_r-aGpdKD-16" value="-Valor" style="text;strokeColor=none;fillColor=none;align=left;verticalAlign=middle;spacingLeft=4;spacingRight=4;overflow=hidden;points=[[0,0.5],[1,0.5]];portConstraint=eastwest;rotatable=0;whiteSpace=wrap;html=1;" vertex="1" parent="dAilp7z7lTu_r-aGpdKD-13">
          <mxGeometry y="90" width="140" height="30" as="geometry" />
        </mxCell>
        <mxCell id="dAilp7z7lTu_r-aGpdKD-26" value="&lt;div&gt;&lt;br&gt;&lt;/div&gt;&lt;div&gt;+Comprovante&lt;/div&gt;&lt;div&gt;&lt;br&gt;&lt;/div&gt;&lt;div&gt;+Sair&lt;/div&gt;" style="verticalAlign=top;align=left;overflow=fill;html=1;whiteSpace=wrap;" vertex="1" parent="dAilp7z7lTu_r-aGpdKD-13">
          <mxGeometry y="120" width="140" height="90" as="geometry" />
        </mxCell>
        <mxCell id="dAilp7z7lTu_r-aGpdKD-17" value="Acesso a conta" style="swimlane;fontStyle=0;childLayout=stackLayout;horizontal=1;startSize=30;horizontalStack=0;resizeParent=1;resizeParentMax=0;resizeLast=0;collapsible=1;marginBottom=0;whiteSpace=wrap;html=1;" vertex="1" parent="1">
          <mxGeometry x="320" y="90" width="140" height="270" as="geometry" />
        </mxCell>
        <mxCell id="dAilp7z7lTu_r-aGpdKD-18" value="-Senha" style="text;strokeColor=none;fillColor=none;align=left;verticalAlign=middle;spacingLeft=4;spacingRight=4;overflow=hidden;points=[[0,0.5],[1,0.5]];portConstraint=eastwest;rotatable=0;whiteSpace=wrap;html=1;" vertex="1" parent="dAilp7z7lTu_r-aGpdKD-17">
          <mxGeometry y="30" width="140" height="30" as="geometry" />
        </mxCell>
        <mxCell id="dAilp7z7lTu_r-aGpdKD-19" value="-CPF" style="text;strokeColor=none;fillColor=none;align=left;verticalAlign=middle;spacingLeft=4;spacingRight=4;overflow=hidden;points=[[0,0.5],[1,0.5]];portConstraint=eastwest;rotatable=0;whiteSpace=wrap;html=1;" vertex="1" parent="dAilp7z7lTu_r-aGpdKD-17">
          <mxGeometry y="60" width="140" height="30" as="geometry" />
        </mxCell>
        <mxCell id="dAilp7z7lTu_r-aGpdKD-20" value="-Número" style="text;strokeColor=none;fillColor=none;align=left;verticalAlign=middle;spacingLeft=4;spacingRight=4;overflow=hidden;points=[[0,0.5],[1,0.5]];portConstraint=eastwest;rotatable=0;whiteSpace=wrap;html=1;" vertex="1" parent="dAilp7z7lTu_r-aGpdKD-17">
          <mxGeometry y="90" width="140" height="30" as="geometry" />
        </mxCell>
        <mxCell id="dAilp7z7lTu_r-aGpdKD-35" value="-Endereço" style="text;strokeColor=none;fillColor=none;align=left;verticalAlign=middle;spacingLeft=4;spacingRight=4;overflow=hidden;points=[[0,0.5],[1,0.5]];portConstraint=eastwest;rotatable=0;whiteSpace=wrap;html=1;" vertex="1" parent="dAilp7z7lTu_r-aGpdKD-17">
          <mxGeometry y="120" width="140" height="30" as="geometry" />
        </mxCell>
        <mxCell id="dAilp7z7lTu_r-aGpdKD-36" value="-Conta" style="text;strokeColor=none;fillColor=none;align=left;verticalAlign=middle;spacingLeft=4;spacingRight=4;overflow=hidden;points=[[0,0.5],[1,0.5]];portConstraint=eastwest;rotatable=0;whiteSpace=wrap;html=1;" vertex="1" parent="dAilp7z7lTu_r-aGpdKD-17">
          <mxGeometry y="150" width="140" height="30" as="geometry" />
        </mxCell>
        <mxCell id="dAilp7z7lTu_r-aGpdKD-25" value="&lt;div&gt;&lt;br&gt;&lt;/div&gt;&lt;div&gt;+CriarConta():&lt;/div&gt;&lt;div&gt;&lt;br&gt;&lt;/div&gt;&lt;div&gt;+Concluir&lt;/div&gt;" style="verticalAlign=top;align=left;overflow=fill;html=1;whiteSpace=wrap;" vertex="1" parent="dAilp7z7lTu_r-aGpdKD-17">
          <mxGeometry y="180" width="140" height="90" as="geometry" />
        </mxCell>
        <mxCell id="dAilp7z7lTu_r-aGpdKD-37" style="edgeStyle=orthogonalEdgeStyle;rounded=0;orthogonalLoop=1;jettySize=auto;html=1;exitX=1;exitY=0.25;exitDx=0;exitDy=0;entryX=0;entryY=0.3;entryDx=0;entryDy=0;entryPerimeter=0;" edge="1" parent="1" source="dAilp7z7lTu_r-aGpdKD-32" target="dAilp7z7lTu_r-aGpdKD-19">
          <mxGeometry relative="1" as="geometry" />
        </mxCell>
        <mxCell id="dAilp7z7lTu_r-aGpdKD-38" style="edgeStyle=orthogonalEdgeStyle;rounded=0;orthogonalLoop=1;jettySize=auto;html=1;exitX=1;exitY=0.5;exitDx=0;exitDy=0;entryX=0;entryY=0.25;entryDx=0;entryDy=0;" edge="1" parent="1" source="dAilp7z7lTu_r-aGpdKD-35" target="dAilp7z7lTu_r-aGpdKD-31">
          <mxGeometry relative="1" as="geometry" />
        </mxCell>
        <mxCell id="dAilp7z7lTu_r-aGpdKD-40" style="edgeStyle=orthogonalEdgeStyle;rounded=0;orthogonalLoop=1;jettySize=auto;html=1;exitX=0;exitY=0.5;exitDx=0;exitDy=0;" edge="1" parent="1" source="dAilp7z7lTu_r-aGpdKD-11" target="dAilp7z7lTu_r-aGpdKD-15">
          <mxGeometry relative="1" as="geometry" />
        </mxCell>
      </root>
    </mxGraphModel>
  </diagram>
</mxfile>
